<svg width="32" height="32" viewBox="0 0 24 24" fill="none" xmlns="http://www.w3.org/2000/svg">
  <rect x="4" y="4" width="16" height="16" rx="2" stroke="#81a1c1" stroke-width="2" fill="none"/>
  <rect x="9" y="9" width="6" height="6" rx="1" fill="#81a1c1"/>
  <circle cx="6" cy="6" r="1" fill="#81a1c1"/>
  <circle cx="18" cy="6" r="1" fill="#81a1c1"/>
  <circle cx="6" cy="18" r="1" fill="#81a1c1"/>
  <circle cx="18" cy="18" r="1" fill="#81a1c1"/>
  <line x1="2" y1="8" x2="4" y2="8" stroke="#81a1c1" stroke-width="2"/>
  <line x1="2" y1="12" x2="4" y2="12" stroke="#81a1c1" stroke-width="2"/>
  <line x1="2" y1="16" x2="4" y2="16" stroke="#81a1c1" stroke-width="2"/>
  <line x1="20" y1="8" x2="22" y2="8" stroke="#81a1c1" stroke-width="2"/>
  <line x1="20" y1="12" x2="22" y2="12" stroke="#81a1c1" stroke-width="2"/>
  <line x1="20" y1="16" x2="22" y2="16" stroke="#81a1c1" stroke-width="2"/>
  <line x1="8" y1="2" x2="8" y2="4" stroke="#81a1c1" stroke-width="2"/>
  <line x1="12" y1="2" x2="12" y2="4" stroke="#81a1c1" stroke-width="2"/>
  <line x1="16" y1="2" x2="16" y2="4" stroke="#81a1c1" stroke-width="2"/>
  <line x1="8" y1="20" x2="8" y2="22" stroke="#81a1c1" stroke-width="2"/>
  <line x1="12" y1="20" x2="12" y2="22" stroke="#81a1c1" stroke-width="2"/>
  <line x1="16" y1="20" x2="16" y2="22" stroke="#81a1c1" stroke-width="2"/>
</svg>